<svg width="96" height="96" viewBox="1279.39 157.07 96 96" fill="none" xmlns="http://www.w3.org/2000/svg">
<path d="M1327.02 250.001C1352.7 250.001 1373.52 229.406 1373.52 204.001C1373.52 178.596 1352.7 158.001 1327.02 158.001C1301.34 158.001 1280.52 178.596 1280.52 204.001C1280.52 229.406 1301.34 250.001 1327.02 250.001Z" fill="#93D33D"/>
<path fill-rule="evenodd" clip-rule="evenodd" d="M1320.38 211.379L1338.33 198.071C1339.21 197.416 1340.46 197.671 1340.88 198.685C1343.09 204.031 1342.1 210.454 1337.71 214.864C1333.32 219.274 1327.21 220.24 1321.63 218.037L1315.53 220.874C1324.28 226.88 1334.9 225.395 1341.54 218.723C1346.81 213.433 1348.44 206.223 1346.91 199.721L1346.93 199.736C1344.72 190.185 1347.47 186.367 1353.12 178.56C1353.25 178.375 1353.39 178.19 1353.52 178.001L1346.09 185.46V185.437L1320.37 211.384M1316.67 214.614C1310.39 208.588 1311.47 199.265 1316.83 193.887C1320.79 189.908 1327.29 188.283 1332.95 190.671L1339.04 187.85C1337.77 186.916 1336.39 186.157 1334.92 185.593C1331.24 184.08 1327.19 183.693 1323.28 184.483C1319.38 185.272 1315.8 187.202 1312.98 190.03C1307.28 195.753 1305.49 204.555 1308.57 212.066C1310.87 217.678 1307.1 221.648 1303.3 225.656C1301.96 227.078 1300.61 228.498 1299.52 230.001L1316.66 214.62" fill="white"/>
</svg>
