<svg width="96" height="96" viewBox="0 0 96 96" fill="none" xmlns="http://www.w3.org/2000/svg">
<g clip-path="url(#clip0_1_9755)">
<path d="M0.229248 28.9457V62.4982C0.229248 74.0796 9.61745 83.4688 21.1988 83.4688C23.8848 83.4688 26.4521 82.964 28.8115 82.0436C32.4585 88.2292 39.1894 92.379 46.8892 92.379C54.589 92.379 61.3189 88.2282 64.9659 82.0426C67.392 82.9872 69.9731 83.4705 72.5766 83.4678C84.158 83.4678 93.5472 74.0786 93.5472 62.4962V28.9447C93.5472 17.3634 84.158 7.97518 72.5766 7.97518C69.8926 7.97518 67.3263 8.47992 64.9659 9.39835C61.3199 3.21279 54.59 -0.938965 46.8902 -0.938965C39.1884 -0.938965 32.4575 3.21279 28.8115 9.39934C26.3853 8.45517 23.8042 7.97218 21.2008 7.97518C9.61844 7.97518 0.229248 17.3634 0.229248 28.9457Z" fill="#6772E5"/>
<g clip-path="url(#clip1_1_9755)"><g clip-path="url(#clip2_1_9755)">
<path fill-rule="evenodd" clip-rule="evenodd" d="M43.1747 35.4413C43.1747 33.4289 44.8847 32.5248 47.6451 32.5248C52.2191 32.621 56.7074 33.7492 60.7561 35.8205V23.8918C56.5907 22.3039 52.1491 21.5117 47.6751 21.5586C36.9941 21.5586 29.8534 26.9834 29.8534 36.1413C29.8534 50.3156 49.8951 48.0116 49.8951 54.1363C49.8951 56.4986 47.7651 57.257 44.8547 57.257C39.7278 56.9823 34.7365 55.5546 30.2734 53.0863V65.3066C34.8211 67.217 39.7207 68.2093 44.6747 68.2233C55.6257 68.2233 63.1864 62.9736 63.1864 53.6406C63.2764 38.4453 43.1747 41.187 43.1747 35.4413Z" fill="white"/>
</g></g></g>
<defs>
<clipPath id="clip0_1_9755"><rect width="96" height="96" fill="white"/></clipPath>
<clipPath id="clip1_1_9755"><rect width="80" height="80" fill="white" transform="translate(6.52002 4.89001)"/></clipPath>
<clipPath id="clip2_1_9755"><rect width="80" height="80" fill="white" transform="translate(6.52002 4.89001)"/></clipPath>
</defs>
</svg>
